<?xml version="1.0" encoding="utf-8"?>
<!-- Generator: Adobe Illustrator 26.4.1, SVG Export Plug-In . SVG Version: 6.00 Build 0)  -->
<svg version="1.1" id="svg1" xmlns:svg="http://www.w3.org/2000/svg"
	 xmlns="http://www.w3.org/2000/svg" xmlns:xlink="http://www.w3.org/1999/xlink" x="0px" y="0px" viewBox="0 0 893.4 293.5"
	 style="enable-background:new 0 0 893.4 293.5;" xml:space="preserve">
<style type="text/css">
	.st0{fill:url(#path1_00000013161728226077239010000006158157541436705433_);}
	.st1{fill:url(#path2_00000029015531886950916990000003943606238353796771_);}
	.st2{fill:url(#path3_00000026844673811944072030000004889302937908241050_);}
	.st3{fill:url(#path4_00000084508217776700291430000012030770810956545452_);}
	.st4{enable-background:new    ;}
	.st5{fill:#ECECEC;}
</style>
<g id="layer1" transform="translate(-92.945312,-368.00403)">
	<g id="g1" transform="matrix(0.00365222,0.748192,-0.748192,0.00365222,456.07845,322.00759)">
		
			<linearGradient id="path1_00000088845407638526548460000003127575079323874735_" gradientUnits="userSpaceOnUse" x1="1179.6569" y1="686.7" x2="1568.2972" y2="952.6158" gradientTransform="matrix(3.652000e-03 -0.7482 -0.7482 -3.652000e-03 556.3737 1260.7566)">
			<stop  offset="0" style="stop-color:#0000FF"/>
			<stop  offset="1" style="stop-color:#F100FF"/>
		</linearGradient>
		<path id="path1" style="fill:url(#path1_00000088845407638526548460000003127575079323874735_);" d="M277.2,118.4
			c11.9-10.5,36.3-24,50.2-33l63-40.6c9.2-5.9,27.2-20.1,37.7-21.8c8.1-0.9,15.9,2.5,20.2,9.6c6.5,10.7,0.6,22.9-2.5,33.7
			c-2.5,8.9-4.8,17.8-7,26.7L404,231.8l-104.3,0h-22.5l0-100.6C277.2,126.9,277.1,122.7,277.2,118.4z"/>
		
			<linearGradient id="path2_00000148644175272774190940000011436986868813324422_" gradientUnits="userSpaceOnUse" x1="1258.9744" y1="741.541" x2="1647.6146" y2="1007.4568" gradientTransform="matrix(3.652000e-03 -0.7482 -0.7482 -3.652000e-03 556.3737 1260.7566)">
			<stop  offset="0" style="stop-color:#0000FF"/>
			<stop  offset="1" style="stop-color:#F100FF"/>
		</linearGradient>
		<path id="path2" style="fill:url(#path2_00000148644175272774190940000011436986868813324422_);" d="M65.7,228
			c-4.8-4.3-6.5-11.9-4.2-17.8c2.7-7,10-10.3,16-14l130.5-82.9c8.4-5.3,17.5-12,26.5-16c0.3,0.5,0,24.2,0,26.4
			c0,46.4,0.1,104,0,108.1c-49.2-0.1-98.4,0-147.6,0C79.2,231.8,72,233,65.7,228L65.7,228z"/>
		
			<linearGradient id="path3_00000178186205709335560720000008918689465201998752_" gradientUnits="userSpaceOnUse" x1="1141.04" y1="659.9999" x2="1529.6803" y2="925.9157" gradientTransform="matrix(3.652000e-03 -0.7482 -0.7482 -3.652000e-03 556.3737 1260.7566)">
			<stop  offset="0" style="stop-color:#0000FF"/>
			<stop  offset="1" style="stop-color:#F100FF"/>
		</linearGradient>
		<path id="path3" style="fill:url(#path3_00000178186205709335560720000008918689465201998752_);" d="M146.2,445.8
			c-14.5,9.8-29.6,18.7-44.1,28.6c-7.8,5.3-16.1,13.2-26.3,10.9c-9.2-2-16.1-11.2-15-20.7c1.4-11.5,9.4-34.3,12.6-46.6l23.2-89.2
			c4.5-17.4,9.1-34.6,13.2-52.1l124.5,0l0,111.5C205.3,407.5,175.6,427.4,146.2,445.8z"/>
		
			<linearGradient id="path4_00000126282007609747019460000005982066677520628103_" gradientUnits="userSpaceOnUse" x1="981.4868" y1="549.683" x2="1370.1271" y2="815.5988" gradientTransform="matrix(3.652000e-03 -0.7482 -0.7482 -3.652000e-03 556.3737 1260.7566)">
			<stop  offset="0" style="stop-color:#0000FF"/>
			<stop  offset="1" style="stop-color:#F100FF"/>
		</linearGradient>
		<path id="path4" style="fill:url(#path4_00000126282007609747019460000005982066677520628103_);" d="M277.2,388.3l0-100.2
			c0-3.7-0.4-7.6,0-11.3l124.1,0c2.9,10.2,5.3,20.5,8,30.7l36.1,135.6c3.6,13,11.5,25.6,0.6,37.1c-14.6,14.8-31-2.7-43.4-10.7
			l-90.7-59C304.4,405.6,284.4,390.7,277.2,388.3z"/>
	</g>
	<g>
		<g class="st4">
			<path class="st5" d="M534.4,610.7c-13.3,0-25.7-2.5-37.2-7.5c-11.5-5-21.6-11.9-30.2-20.9c-8.6-8.9-15.3-19.4-20.1-31.3
				c-4.8-11.9-7.2-24.9-7.2-38.8c0-13.7,2.4-26.6,7.2-38.4c4.8-11.9,11.5-22.3,20.1-31.2c8.6-8.9,18.6-15.9,30.1-21
				c11.5-5.1,23.9-7.6,37.3-7.6c12.6,0,23.4,1.6,32.5,4.9c9.1,3.3,18.2,8.7,27.4,16.2c1.3,1,2.3,2,3.1,3.1c0.7,1.1,1.2,2.1,1.5,3.2
				c0.2,1.1,0.4,2.3,0.4,3.8c0,3.1-1.1,5.7-3.3,7.7c-2.2,2-4.9,3.2-8,3.4c-3.1,0.2-6.1-0.8-9.1-3.1c-6.1-5.2-12.3-9.2-18.8-12
				c-6.5-2.8-15-4.2-25.7-4.2c-9.7,0-18.7,2-27.2,5.9c-8.5,3.9-16,9.3-22.5,16.2c-6.5,6.9-11.5,14.9-15.1,23.9
				c-3.6,9.1-5.4,18.8-5.4,29.1c0,10.5,1.8,20.3,5.4,29.3c3.6,9.1,8.6,17.1,15.1,23.9c6.5,6.9,14,12.2,22.5,16.1
				c8.5,3.8,17.6,5.8,27.2,5.8c8.3,0,16.2-1.4,23.7-4.3c7.4-2.9,14.6-6.8,21.5-11.9c2.9-2.1,5.8-3.1,8.7-2.8
				c2.9,0.2,5.3,1.4,7.2,3.4c2,2,2.9,4.9,2.9,8.5c0,1.6-0.3,3.2-1,4.8c-0.7,1.6-1.6,3-2.9,4.3c-8.8,7-18.3,12.4-28.4,16
				C556.1,608.9,545.5,610.7,534.4,610.7z"/>
			<path class="st5" d="M652,608.3c-3.6,0-6.6-1.2-9.1-3.7c-2.5-2.5-3.7-5.5-3.7-9.1V429.3c0-3.8,1.2-6.8,3.7-9.2
				c2.5-2.4,5.5-3.6,9.1-3.6h44.2c12.3,0,23.2,2.6,32.6,7.7c9.5,5.2,16.9,12.2,22.2,21.2c5.3,9,8,19.5,8,31.4c0,11.1-2.7,21-8,29.7
				c-5.3,8.7-12.7,15.5-22.2,20.4c-9.5,4.9-20.4,7.4-32.6,7.4h-31.4v61.1c0,3.6-1.2,6.6-3.6,9.1C658.8,607,655.7,608.3,652,608.3z
				 M664.7,510.8h31.4c7.5,0,14.2-1.4,19.9-4.3c5.7-2.9,10.2-6.9,13.5-12c3.3-5.2,4.9-11,4.9-17.6c0-7.2-1.6-13.6-4.9-19.1
				c-3.3-5.6-7.8-9.9-13.5-13c-5.7-3.1-12.4-4.7-19.9-4.7h-31.4V510.8z M753.8,608.3c-2.3,0-4.4-0.5-6.3-1.5c-1.9-1-3.5-2.5-4.8-4.7
				l-44.2-71.2l24.8-7.1l40.3,64.8c2.9,4.7,3.4,9.2,1.2,13.4C762.8,606.2,759.1,608.3,753.8,608.3z"/>
			<path class="st5" d="M807.1,608.3c-3.6,0-6.6-1.2-9.1-3.7c-2.5-2.5-3.7-5.5-3.7-9.1V429.3c0-3.8,1.2-6.8,3.7-9.2
				c2.5-2.4,5.5-3.6,9.1-3.6c4.9,0,8.7,2.3,11.3,6.9l76.8,153.9h-7.9l74.9-153.9c2.6-4.6,6.4-6.9,11.3-6.9c3.6,0,6.6,1.2,9.1,3.6
				c2.5,2.4,3.7,5.4,3.7,9.2v166.2c0,3.6-1.3,6.6-3.8,9.1c-2.5,2.5-5.5,3.7-9,3.7c-3.6,0-6.6-1.2-9.1-3.7c-2.5-2.5-3.7-5.5-3.7-9.1
				V464.6l4.9-1.2l-64.3,131.1c-2.8,4.3-6.5,6.4-11,6.4c-5.4,0-9.3-2.5-11.8-7.6L815,465.9l4.9-1.2v130.8c0,3.6-1.2,6.6-3.7,9.1
				C813.7,607,810.7,608.3,807.1,608.3z"/>
		</g>
	</g>
</g>
</svg>
