<?xml version="1.0" encoding="UTF-8" standalone="no"?>
<!-- Created with Inkscape (http://www.inkscape.org/) -->

<svg
   width="893.37421"
   height="293.5354"
   viewBox="0 0 893.37421 293.5354"
   version="1.1"
   id="svg1"
   xml:space="preserve"
   xmlns:xlink="http://www.w3.org/1999/xlink"
   xmlns="http://www.w3.org/2000/svg"
   xmlns:svg="http://www.w3.org/2000/svg"><defs
     id="defs1"><linearGradient
       id="linearGradient1"><stop
         style="stop-color:#0000ff;stop-opacity:1;"
         offset="0"
         id="stop1" /><stop
         style="stop-color:#f100ff;stop-opacity:1;"
         offset="1"
         id="stop2" /></linearGradient><linearGradient
       xlink:href="#linearGradient1"
       id="linearGradient2"
       x1="60.746517"
       y1="395.87903"
       x2="449.38687"
       y2="129.96321"
       gradientUnits="userSpaceOnUse" /><linearGradient
       xlink:href="#linearGradient1"
       id="linearGradient3"
       gradientUnits="userSpaceOnUse"
       x1="60.746517"
       y1="395.87903"
       x2="449.38687"
       y2="129.96321" /><linearGradient
       xlink:href="#linearGradient1"
       id="linearGradient4"
       gradientUnits="userSpaceOnUse"
       x1="60.746517"
       y1="395.87903"
       x2="449.38687"
       y2="129.96321" /><linearGradient
       xlink:href="#linearGradient1"
       id="linearGradient5"
       gradientUnits="userSpaceOnUse"
       x1="60.746517"
       y1="395.87903"
       x2="449.38687"
       y2="129.96321" /><linearGradient
       xlink:href="#linearGradient1"
       id="linearGradient6"
       gradientUnits="userSpaceOnUse"
       x1="60.746517"
       y1="395.87903"
       x2="449.38687"
       y2="129.96321" /></defs><g
     id="layer1"
     transform="translate(-92.945312,-368.00403)"><g
       style="display:block;fill:url(#linearGradient2)"
       id="g1"
       transform="matrix(0.00365222,0.748192,-0.748192,0.00365222,456.07845,322.00759)"><path
         fill="#000000"
         d="m 277.215,118.437 c 11.913,-10.511 36.316,-23.9816 50.16,-32.9698 L 390.38,44.89 c 9.19,-5.8943 27.237,-20.1181 37.664,-21.8138 8.116,-0.9499 15.868,2.4773 20.199,9.5703 6.527,10.688 0.568,22.8798 -2.54,33.7007 -2.544,8.859 -4.836,17.787 -7.048,26.7338 L 404.016,231.76 H 299.688 277.215 l -10e-4,-100.602 c -0.003,-4.241 -0.157,-8.481 10e-4,-12.721 z"
         id="path1"
         style="fill:url(#linearGradient3)" /><path
         fill="#000000"
         d="m 65.6593,227.952 c -4.8294,-4.292 -6.5006,-11.854 -4.2437,-17.83 2.6547,-7.029 10.0059,-10.286 15.9697,-13.977 L 207.864,113.261 c 8.393,-5.347 17.515,-12.025 26.51,-16.0029 0.255,0.4959 -0.004,24.1549 -0.004,26.4349 -0.001,46.35868 0.11911,104.00536 0.004,108.067 -49.16026,-0.14543 -98.38387,0.005 -147.5619,0.013 -7.5851,0.045 -14.8486,1.267 -21.1528,-3.821 z"
         id="path2"
         style="fill:url(#linearGradient4)" /><path
         fill="#000000"
         d="m 146.229,445.839 c -14.498,9.811 -29.589,18.743 -44.094,28.567 -7.7706,5.263 -16.1062,13.19 -26.2628,10.935 -9.1778,-2.037 -16.1321,-11.196 -15.0059,-20.654 1.3664,-11.475 9.3932,-34.263 12.5713,-46.577 l 23.2387,-89.213 c 4.4987,-17.37 9.0977,-34.639 13.1647,-52.123 h 124.533 v 111.513 c -29.068,19.202 -58.758,39.141 -88.145,57.552 z"
         id="path3"
         style="fill:url(#linearGradient5)" /><path
         fill="#000000"
         d="m 277.215,388.287 -0.006,-100.236 c -0.009,-3.729 -0.353,-7.569 0.006,-11.277 h 124.15 c 2.919,10.191 5.271,20.473 7.951,30.72 l 36.074,135.568 c 3.586,13.019 11.474,25.555 0.601,37.09 -14.583,14.763 -30.959,-2.693 -43.422,-10.684 l -90.695,-58.956 c -7.455,-4.875 -27.494,-19.798 -34.659,-22.225 z"
         id="path4"
         style="fill:url(#linearGradient6)" /></g><text
       xml:space="preserve"
       style="font-weight:bold;font-size:245.483px;font-family:Comfortaa;-inkscape-font-specification:'Comfortaa Bold';fill:#ececec;fill-opacity:1;stroke-width:15.5473"
       x="423.91788"
       y="608.25073"
       id="text15"><tspan
         id="tspan15"
         x="423.91788"
         y="608.25073"
         style="fill:#ececec;fill-opacity:1;stroke-width:15.5473">CRM</tspan></text></g></svg>
