<?xml version="1.0" encoding="UTF-8" standalone="no"?>
<!-- Created with Inkscape (http://www.inkscape.org/) -->

<svg
   width="1399.9149"
   height="516.65759"
   viewBox="0 0 1399.9149 516.65759"
   version="1.1"
   id="svg1"
   xml:space="preserve"
   xmlns:xlink="http://www.w3.org/1999/xlink"
   xmlns="http://www.w3.org/2000/svg"
   xmlns:svg="http://www.w3.org/2000/svg"><defs
     id="defs1"><linearGradient
       id="linearGradient3"><stop
         style="stop-color:#ffecec;stop-opacity:1;"
         offset="0"
         id="stop4" /><stop
         style="stop-color:#8f5bec;stop-opacity:1;"
         offset="0.5027386"
         id="stop6" /><stop
         style="stop-color:#22ecec;stop-opacity:1;"
         offset="1"
         id="stop5" /></linearGradient><linearGradient
       xlink:href="#linearGradient3"
       id="linearGradient5"
       x1="742.59735"
       y1="399.30835"
       x2="1497.5327"
       y2="127.77575"
       gradientUnits="userSpaceOnUse"
       gradientTransform="matrix(0.94241372,0,0,0.94241372,66.460159,-51.313667)" /></defs><g
     id="layer1"
     transform="translate(-101.51617,-52.244408)"><path
       d="M 612.40797,418.0083 V 294.5894 c -9.7e-4,-7.84707 0.44452,-16.02507 -0.48098,-23.81887 -4.43116,-37.28201 -35.24592,-72.61905 -73.95122,-74.808 -34.94444,-1.97578 -62.95467,22.15859 -87.50834,43.94418 -17.19175,15.25522 -32.20439,30.62124 -39.56907,52.98035 -4.29795,13.04385 -3.21963,27.13801 -3.22103,40.68109 l 0.0323,192.10184 c -0.007,6.94961 0.3197,14.07873 -0.14865,21.0017 -5.04534,74.69442 -76.97029,128.55543 -147.84496,106.42205 -17.50447,-5.466 -33.84507,-14.97617 -45.84846,-28.98059 l -0.75722,0.91848 c -10.13414,11.53364 -25.00518,19.49149 -39.37556,24.43309 -64.94215,22.33244 -131.694425,-29.31156 -136.094304,-95.43675 -0.388704,-5.84184 -0.189494,-11.77901 -0.197848,-17.63208 l -0.03034,-212.13176 c 7.05e-4,-26.35696 -1.593682,-53.04206 3.907131,-78.97697 C 56.75847,172.49424 117.0247,115.19112 191.67666,110.18375 l 14.91026,-0.0292 c 62.44426,1.46034 119.52205,51.22796 160.12041,93.77014 2.9223,-2.63346 5.55857,-5.65533 8.31543,-8.46829 l 15.52726,-15.37162 c 28.09999,-26.57666 60.35068,-51.78449 98.02812,-62.90333 18.43839,-5.44106 39.43308,-8.61848 58.76331,-6.76411 83.87364,8.04621 143.72651,81.42265 149.10979,162.97132 0.38002,5.7521 0.18928,11.58973 0.19215,17.35583 l -0.007,227.37859 c 0,17.39652 0.65487,34.46767 -3.04854,51.59634 -17.56841,81.25277 -116.80808,114.78094 -176.459,54.50038 -22.63397,-22.87235 -31.65613,-49.43963 -31.68559,-80.78163 l 0.0186,-37.09926 a 41.878851,41.878851 134.98758 0 1 41.83973,-41.85787 c 22.43513,-0.021 41.04456,18.21202 40.94023,40.72548 -0.0397,8.56741 -0.1024,17.13418 -0.10455,25.69269 0.007,12.90503 -1.29571,32.43018 15.6787,36.59349 l 0.52445,0.12058 c 7.34787,1.73318 15.861,0.0643 21.30742,-5.30899 7.76574,-7.66194 6.75329,-18.09201 6.76453,-28.03405 z M 197.02353,195.74236 c -36.81925,1.95617 -68.16309,33.91658 -74.25973,69.48784 -1.48779,8.67999 -1.47139,16.88746 -1.47546,25.65584 l -0.0719,241.61435 c -0.008,5.40293 -0.34986,11.04423 0.0131,16.42055 0.80953,12.01038 12.73917,20.38751 24.23143,19.12829 23.0228,-2.5227 20.27575,-27.67371 20.28417,-43.83201 -0.004,-6.7892 -0.35654,-13.58389 -0.70624,-20.25769 -1.14093,-21.77391 18.84986,-39.46312 40.71963,-39.46287 23.40026,2.8e-4 42.1926,20.32577 42.23701,45.3984 0.013,7.31445 0.0298,14.62887 0.032,21.94306 0.0224,4.70457 -0.30988,10.3599 1.26767,14.82614 15.30148,43.2921 74.3102,31.66732 76.99272,-6.14473 0.33515,-4.72424 0.17104,-9.54663 0.16972,-14.28207 l -0.045,-198.82011 c -0.007,-5.07901 0.15143,-10.2169 -0.1697,-15.28188 -2.17503,-34.28197 -22.94537,-54.90228 -47.9884,-76.40178 -23.15282,-19.87712 -48.99936,-40.94475 -81.23041,-39.9926 z"
       id="path1"
       style="fill:#1677ff;fill-opacity:1;stroke-width:1.40225"
       fill="#000000"
       transform="matrix(0.94241372,0,0,0.94241372,66.460157,-51.313676)" /><text
       xml:space="preserve"
       style="font-size:238.681px;fill:#ececec;stroke-width:1.69065"
       x="742.42609"
       y="532.13562"
       id="text1"><tspan
         id="tspan1"
         x="742.42609"
         y="532.13562"
         style="font-style:normal;font-variant:normal;font-weight:bold;font-stretch:normal;font-size:238.681px;font-family:Comfortaa;-inkscape-font-specification:'Comfortaa Bold';fill:#ececec;stroke-width:1.69065">Relate</tspan></text><text
       xml:space="preserve"
       style="font-weight:bold;font-size:319.471px;font-family:Comfortaa;-inkscape-font-specification:'Comfortaa Bold';fill:url(#linearGradient5);fill-opacity:1;stroke-width:20.2332"
       x="745.84796"
       y="321.8053"
       id="text3"><tspan
         id="tspan3"
         x="745.84796"
         y="321.8053"
         style="fill:url(#linearGradient5);fill-opacity:1;stroke-width:20.2332">CRM</tspan></text></g></svg>
