<?xml version="1.0" encoding="utf-8"?>
<!-- Generator: Adobe Illustrator 26.4.1, SVG Export Plug-In . SVG Version: 6.00 Build 0)  -->
<svg version="1.1" id="svg1" xmlns:svg="http://www.w3.org/2000/svg"
	 xmlns="http://www.w3.org/2000/svg" xmlns:xlink="http://www.w3.org/1999/xlink" x="0px" y="0px" viewBox="0 0 1399.9 516.7"
	 style="enable-background:new 0 0 1399.9 516.7;" xml:space="preserve">
<style type="text/css">
	.st0{fill:#1677FF;}
	.st1{enable-background:new    ;}
	.st2{fill:#ECECEC;}
	.st3{fill:url(#SVGID_1_);}
	.st4{fill:url(#SVGID_00000152967097849936155880000011955791712529433248_);}
	.st5{fill:url(#SVGID_00000031179999291903737890000014023125400758220478_);}
</style>
<g id="layer1" transform="translate(-101.51617,-52.244408)">
	<path id="path1" class="st0" d="M643.6,342.6V226.3c0-7.4,0.4-15.1-0.5-22.4c-4.2-35.1-33.2-68.4-69.7-70.5
		c-32.9-1.9-59.3,20.9-82.5,41.4c-16.2,14.4-30.3,28.9-37.3,49.9c-4.1,12.3-3,25.6-3,38.3l0,181c0,6.5,0.3,13.3-0.1,19.8
		C445.8,534.3,378,585,311.2,564.2c-16.5-5.2-31.9-14.1-43.2-27.3l-0.7,0.9c-9.6,10.9-23.6,18.4-37.1,23
		c-61.2,21-124.1-27.6-128.3-89.9c-0.4-5.5-0.2-11.1-0.2-16.6l0-199.9c0-24.8-1.5-50,3.7-74.4C120,111.2,176.7,57.2,247.1,52.5
		l14.1,0c58.8,1.4,112.6,48.3,150.9,88.4c2.8-2.5,5.2-5.3,7.8-8l14.6-14.5c26.5-25,56.9-48.8,92.4-59.3c17.4-5.1,37.2-8.1,55.4-6.4
		c79,7.6,135.4,76.7,140.5,153.6c0.4,5.4,0.2,10.9,0.2,16.4l0,214.3c0,16.4,0.6,32.5-2.9,48.6C703.6,562.2,610,593.8,553.8,537
		c-21.3-21.6-29.8-46.6-29.9-76.1l0-35c0-21.8,17.7-39.4,39.4-39.4c21.1,0,38.7,17.2,38.6,38.4c0,8.1-0.1,16.1-0.1,24.2
		c0,12.2-1.2,30.6,14.8,34.5l0.5,0.1c6.9,1.6,14.9,0.1,20.1-5c7.3-7.2,6.4-17.1,6.4-26.4L643.6,342.6z M252.1,133.2
		c-34.7,1.8-64.2,32-70,65.5c-1.4,8.2-1.4,15.9-1.4,24.2l-0.1,227.7c0,5.1-0.3,10.4,0,15.5c0.8,11.3,12,19.2,22.8,18
		c21.7-2.4,19.1-26.1,19.1-41.3c0-6.4-0.3-12.8-0.7-19.1c-1.1-20.5,17.8-37.2,38.4-37.2c22.1,0,39.8,19.2,39.8,42.8
		c0,6.9,0,13.8,0,20.7c0,4.4-0.3,9.8,1.2,14c14.4,40.8,70,29.8,72.6-5.8c0.3-4.5,0.2-9,0.2-13.5l0-187.4c0-4.8,0.1-9.6-0.2-14.4
		c-2-32.3-21.6-51.7-45.2-72C306.9,152.1,282.5,132.3,252.1,133.2L252.1,133.2z"/>
	<g>
		<g class="st1">
			<path class="st2" d="M778.7,532.1c-3.5,0-6.4-1.2-8.8-3.6s-3.6-5.3-3.6-8.8V358.1c0-3.7,1.2-6.6,3.6-9c2.4-2.3,5.3-3.5,8.8-3.5
				h43c11.9,0,22.5,2.5,31.7,7.5c9.2,5,16.4,11.9,21.6,20.6c5.2,8.8,7.8,18.9,7.8,30.6c0,10.8-2.6,20.4-7.8,28.9
				c-5.2,8.4-12.4,15-21.6,19.8c-9.2,4.8-19.8,7.2-31.7,7.2h-30.6v59.4c0,3.5-1.2,6.4-3.5,8.8C785.3,530.9,782.4,532.1,778.7,532.1z
				 M791.1,437.4h30.6c7.3,0,13.8-1.4,19.3-4.2c5.6-2.8,9.9-6.7,13.1-11.7c3.2-5,4.8-10.7,4.8-17.1c0-7-1.6-13.2-4.8-18.6
				c-3.2-5.4-7.6-9.6-13.1-12.7c-5.6-3-12-4.5-19.3-4.5h-30.6V437.4z M877.8,532.1c-2.2,0-4.3-0.5-6.1-1.4c-1.8-1-3.4-2.5-4.7-4.5
				l-43-69.2l24.1-6.9l39.1,63c2.9,4.6,3.3,9,1.2,13C886.4,530.1,882.8,532.1,877.8,532.1z"/>
			<path class="st2" d="M976.1,533.1c-13.2,0-24.9-2.8-35.2-8.5c-10.3-5.6-18.3-13.4-24.1-23.4c-5.8-9.9-8.7-21.4-8.7-34.3
				c0-13,2.7-24.5,8.2-34.5c5.5-9.9,13.1-17.7,22.8-23.4c9.7-5.6,20.8-8.5,33.4-8.5c12.4,0,23.1,2.7,32,8.2
				c8.9,5.5,15.7,13,20.4,22.7c4.7,9.6,7,20.7,7,33.3c0,3-1,5.5-3.1,7.5c-2.1,2-4.7,3-7.9,3h-96.2v-19.1h95.5l-9.8,6.7
				c-0.2-8-1.8-15.1-4.8-21.4c-3-6.3-7.3-11.3-12.9-14.9c-5.6-3.7-12.3-5.5-20.3-5.5c-9.1,0-16.8,2-23.3,6
				c-6.4,4-11.3,9.4-14.7,16.3c-3.3,6.9-5,14.8-5,23.5c0,8.8,2,16.6,6,23.4c4,6.8,9.5,12.3,16.5,16.2c7,4,15,6,24.1,6
				c4.9,0,10-0.9,15.2-2.7c5.2-1.8,9.3-3.9,12.5-6.3c2.4-1.7,5-2.7,7.8-2.7c2.8-0.1,5.2,0.8,7.3,2.5c2.7,2.4,4.1,5,4.3,7.9
				c0.2,2.9-1.1,5.3-3.8,7.4c-5.4,4.3-12.1,7.8-20.2,10.5C991.1,531.7,983.4,533.1,976.1,533.1z"/>
			<path class="st2" d="M1094,532.1c-7,0-13.2-1.9-18.6-5.7c-5.4-3.8-9.6-9-12.7-15.6c-3-6.6-4.5-14.2-4.5-22.8V357.7
				c0-3.5,1.1-6.4,3.3-8.6c2.2-2.2,5.1-3.3,8.6-3.3c3.5,0,6.4,1.1,8.6,3.3c2.2,2.2,3.3,5.1,3.3,8.6V488c0,5.9,1.1,10.7,3.3,14.6
				c2.2,3.8,5.1,5.7,8.6,5.7h6c3.2,0,5.8,1.1,7.8,3.3c2,2.2,3,5.1,3,8.6c0,3.5-1.5,6.4-4.5,8.6c-3,2.2-6.9,3.3-11.7,3.3H1094z"/>
			<path class="st2" d="M1189,533.1c-11.6,0-22-2.9-31.3-8.7c-9.2-5.8-16.5-13.7-21.8-23.6c-5.3-9.9-8-21.2-8-33.8
				c0-12.6,2.9-23.9,8.7-33.9c5.8-10,13.7-17.9,23.6-23.7c9.9-5.8,21.1-8.7,33.5-8.7s23.5,2.9,33.4,8.7c9.9,5.8,17.7,13.7,23.5,23.7
				c5.8,10,8.7,21.3,8.7,33.9h-9.3c0,12.6-2.7,23.8-8,33.8c-5.3,9.9-12.6,17.8-21.8,23.6C1211,530.2,1200.6,533.1,1189,533.1z
				 M1193.8,511.6c8.1,0,15.4-1.9,21.7-5.8c6.4-3.9,11.4-9.2,15-16c3.7-6.8,5.5-14.4,5.5-22.8c0-8.6-1.8-16.3-5.5-23
				c-3.7-6.8-8.7-12.1-15-16c-6.4-3.9-13.6-5.8-21.7-5.8c-8,0-15.2,2-21.6,5.8c-6.4,3.9-11.5,9.2-15.3,16c-3.7,6.8-5.6,14.4-5.6,23
				c0,8.4,1.9,16,5.6,22.8c3.7,6.8,8.8,12.1,15.3,16C1178.6,509.7,1185.8,511.6,1193.8,511.6z M1247.2,532.4c-3.5,0-6.4-1.2-8.7-3.5
				c-2.3-2.3-3.5-5.2-3.5-8.7v-36.5l4.5-25.3l19.8,8.6v53.2c0,3.5-1.2,6.4-3.5,8.7C1253.6,531.2,1250.7,532.4,1247.2,532.4z"/>
			<path class="st2" d="M1290.2,426.9c-3.3,0-6-1-8.1-2.9c-2.1-1.9-3.1-4.3-3.1-7.2c0-3.2,1-5.7,3.1-7.6c2.1-1.9,4.8-2.9,8.1-2.9
				h55.1c3.3,0,6,1,8.1,2.9c2.1,1.9,3.1,4.5,3.1,7.6c0,2.9-1,5.3-3.1,7.2c-2.1,1.9-4.8,2.9-8.1,2.9H1290.2z M1343.2,532.1
				c-8,0-15.1-2-21.5-6.1c-6.4-4.1-11.4-9.6-15-16.6c-3.7-7-5.5-14.9-5.5-23.6V372c0-3.5,1.1-6.4,3.3-8.6c2.2-2.2,5.1-3.3,8.6-3.3
				c3.5,0,6.4,1.1,8.6,3.3c2.2,2.2,3.3,5.1,3.3,8.6v113.9c0,6.4,1.7,11.7,5.3,16c3.5,4.3,7.8,6.4,12.9,6.4h8.1
				c2.9,0,5.3,1.1,7.3,3.3c2,2.2,3,5.1,3,8.6c0,3.5-1.3,6.4-3.9,8.6c-2.6,2.2-6,3.3-10.1,3.3H1343.2z"/>
			<path class="st2" d="M1452.7,533.1c-13.2,0-24.9-2.8-35.2-8.5c-10.3-5.6-18.3-13.4-24.1-23.4c-5.8-9.9-8.7-21.4-8.7-34.3
				c0-13,2.7-24.5,8.2-34.5c5.5-9.9,13.1-17.7,22.8-23.4c9.7-5.6,20.8-8.5,33.4-8.5c12.4,0,23.1,2.7,32,8.2
				c8.9,5.5,15.7,13,20.4,22.7c4.7,9.6,7,20.7,7,33.3c0,3-1,5.5-3.1,7.5c-2.1,2-4.7,3-7.9,3h-96.2v-19.1h95.5l-9.8,6.7
				c-0.2-8-1.8-15.1-4.8-21.4c-3-6.3-7.3-11.3-12.9-14.9c-5.6-3.7-12.3-5.5-20.3-5.5c-9.1,0-16.8,2-23.3,6
				c-6.4,4-11.3,9.4-14.7,16.3c-3.3,6.9-5,14.8-5,23.5c0,8.8,2,16.6,6,23.4c4,6.8,9.5,12.3,16.5,16.2c7,4,15,6,24.1,6
				c4.9,0,10-0.9,15.2-2.7c5.2-1.8,9.3-3.9,12.5-6.3c2.4-1.7,5-2.7,7.8-2.7c2.8-0.1,5.2,0.8,7.3,2.5c2.7,2.4,4.1,5,4.3,7.9
				c0.2,2.9-1.1,5.3-3.8,7.4c-5.4,4.3-12.1,7.8-20.2,10.5C1467.7,531.7,1460,533.1,1452.7,533.1z"/>
		</g>
	</g>
	<g class="st1">
		<g>
			<linearGradient id="SVGID_1_" gradientUnits="userSpaceOnUse" x1="745.8482" y1="225.7237" x2="1656.9712" y2="225.7237">
				<stop  offset="0" style="stop-color:#FFECEC"/>
				<stop  offset="0.5027" style="stop-color:#8F5BEC"/>
				<stop  offset="1" style="stop-color:#22ECEC"/>
			</linearGradient>
			<path class="st3" d="M889.6,325c-17.3,0-33.4-3.2-48.4-9.7c-15-6.5-28.1-15.5-39.3-27.2c-11.2-11.6-19.9-25.2-26.2-40.7
				c-6.3-15.5-9.4-32.4-9.4-50.5c0-17.9,3.1-34.6,9.4-50c6.3-15.4,15-29,26.2-40.6c11.2-11.6,24.2-20.7,39.1-27.3
				c14.9-6.6,31.1-9.9,48.6-9.9c16.4,0,30.5,2.1,42.3,6.4c11.8,4.3,23.7,11.3,35.6,21.1c1.7,1.3,3,2.6,4,4c1,1.4,1.6,2.8,1.9,4.2
				c0.3,1.4,0.5,3,0.5,5c0,4-1.4,7.4-4.3,10.1c-2.9,2.7-6.3,4.2-10.4,4.5c-4,0.3-8-1-11.8-4c-7.9-6.8-16-12-24.4-15.7
				c-8.4-3.6-19.5-5.4-33.4-5.4c-12.6,0-24.4,2.6-35.5,7.7c-11.1,5.1-20.8,12.1-29.2,21.1c-8.4,8.9-15,19.3-19.6,31.1
				c-4.7,11.8-7,24.4-7,37.9c0,13.6,2.3,26.4,7,38.2c4.7,11.8,11.2,22.2,19.6,31.1c8.4,8.9,18.2,15.9,29.2,20.9
				c11.1,5,22.9,7.5,35.5,7.5c10.9,0,21.1-1.9,30.8-5.6c9.7-3.7,19-8.9,28-15.5c3.8-2.8,7.6-4,11.3-3.7c3.7,0.3,6.9,1.8,9.4,4.5
				c2.6,2.7,3.8,6.3,3.8,11c0,2.1-0.4,4.2-1.3,6.2c-0.9,2-2.1,3.9-3.8,5.6c-11.5,9.2-23.8,16.1-36.9,20.8
				C917.9,322.7,904.1,325,889.6,325z"/>
			
				<linearGradient id="SVGID_00000182516141454025025920000009346375366413693057_" gradientUnits="userSpaceOnUse" x1="745.8482" y1="225.7237" x2="1656.9712" y2="225.7237">
				<stop  offset="0" style="stop-color:#FFECEC"/>
				<stop  offset="0.5027" style="stop-color:#8F5BEC"/>
				<stop  offset="1" style="stop-color:#22ECEC"/>
			</linearGradient>
			<path style="fill:url(#SVGID_00000182516141454025025920000009346375366413693057_);" d="M1042.6,321.8c-4.7,0-8.6-1.6-11.8-4.8
				c-3.2-3.2-4.8-7.1-4.8-11.8V88.9c0-4.9,1.6-8.9,4.8-12c3.2-3.1,7.1-4.6,11.8-4.6h57.5c16,0,30.1,3.4,42.5,10.1
				c12.3,6.7,22,15.9,28.9,27.6c6.9,11.7,10.4,25.3,10.4,40.9c0,14.5-3.5,27.4-10.4,38.7c-6.9,11.3-16.6,20.1-28.9,26.5
				c-12.4,6.4-26.5,9.6-42.5,9.6h-40.9v79.5c0,4.7-1.5,8.6-4.6,11.8C1051.5,320.2,1047.5,321.8,1042.6,321.8z M1059.2,195h40.9
				c9.8,0,18.4-1.9,25.9-5.6c7.5-3.7,13.3-8.9,17.6-15.7c4.3-6.7,6.4-14.3,6.4-22.8c0-9.4-2.1-17.7-6.4-24.9
				c-4.3-7.2-10.1-12.9-17.6-16.9c-7.5-4-16.1-6.1-25.9-6.1h-40.9V195z M1175.2,321.8c-3,0-5.7-0.6-8.1-1.9
				c-2.5-1.3-4.5-3.3-6.2-6.1l-57.5-92.6l32.3-9.3l52.4,84.3c3.8,6.2,4.4,12,1.6,17.4C1186.8,319.1,1182,321.8,1175.2,321.8z"/>
			
				<linearGradient id="SVGID_00000138534455500711576730000002339305469575514503_" gradientUnits="userSpaceOnUse" x1="745.8482" y1="225.7237" x2="1656.9712" y2="225.7237">
				<stop  offset="0" style="stop-color:#FFECEC"/>
				<stop  offset="0.5027" style="stop-color:#8F5BEC"/>
				<stop  offset="1" style="stop-color:#22ECEC"/>
			</linearGradient>
			<path style="fill:url(#SVGID_00000138534455500711576730000002339305469575514503_);" d="M1244.5,321.8c-4.7,0-8.6-1.6-11.8-4.8
				c-3.2-3.2-4.8-7.1-4.8-11.8V88.9c0-4.9,1.6-8.9,4.8-12c3.2-3.1,7.1-4.6,11.8-4.6c6.4,0,11.3,3,14.7,8.9l100,200.3H1349
				l97.4-200.3c3.4-6,8.3-8.9,14.7-8.9c4.7,0,8.6,1.5,11.8,4.6c3.2,3.1,4.8,7.1,4.8,12v216.3c0,4.7-1.7,8.6-5,11.8
				c-3.3,3.2-7.2,4.8-11.7,4.8c-4.7,0-8.6-1.6-11.8-4.8c-3.2-3.2-4.8-7.1-4.8-11.8V134.9l6.4-1.6l-83.7,170.6
				c-3.6,5.5-8.4,8.3-14.4,8.3c-7,0-12.1-3.3-15.3-9.9l-82.7-165.8l6.4-1.6v170.3c0,4.7-1.6,8.6-4.8,11.8S1249.2,321.8,1244.5,321.8
				z"/>
		</g>
		<g>
			<g>
				<path d="M889.6,325c-17.3,0-33.4-3.2-48.4-9.7c-15-6.5-28.1-15.5-39.3-27.2c-11.2-11.6-19.9-25.2-26.2-40.7
					c-6.3-15.5-9.4-32.4-9.4-50.5c0-17.9,3.1-34.6,9.4-50c6.3-15.4,15-29,26.2-40.6c11.2-11.6,24.2-20.7,39.1-27.3
					c14.9-6.6,31.1-9.9,48.6-9.9c16.4,0,30.5,2.1,42.3,6.4c11.8,4.3,23.7,11.3,35.6,21.1c1.7,1.3,3,2.6,4,4c1,1.4,1.6,2.8,1.9,4.2
					c0.3,1.4,0.5,3,0.5,5c0,4-1.4,7.4-4.3,10.1c-2.9,2.7-6.3,4.2-10.4,4.5c-4,0.3-8-1-11.8-4c-7.9-6.8-16-12-24.4-15.7
					c-8.4-3.6-19.5-5.4-33.4-5.4c-12.6,0-24.4,2.6-35.5,7.7c-11.1,5.1-20.8,12.1-29.2,21.1c-8.4,8.9-15,19.3-19.6,31.1
					c-4.7,11.8-7,24.4-7,37.9c0,13.6,2.3,26.4,7,38.2c4.7,11.8,11.2,22.2,19.6,31.1c8.4,8.9,18.2,15.9,29.2,20.9
					c11.1,5,22.9,7.5,35.5,7.5c10.9,0,21.1-1.9,30.8-5.6c9.7-3.7,19-8.9,28-15.5c3.8-2.8,7.6-4,11.3-3.7c3.7,0.3,6.9,1.8,9.4,4.5
					c2.6,2.7,3.8,6.3,3.8,11c0,2.1-0.4,4.2-1.3,6.2c-0.9,2-2.1,3.9-3.8,5.6c-11.5,9.2-23.8,16.1-36.9,20.8
					C917.9,322.7,904.1,325,889.6,325z"/>
				<path d="M1042.6,321.8c-4.7,0-8.6-1.6-11.8-4.8c-3.2-3.2-4.8-7.1-4.8-11.8V88.9c0-4.9,1.6-8.9,4.8-12c3.2-3.1,7.1-4.6,11.8-4.6
					h57.5c16,0,30.1,3.4,42.5,10.1c12.3,6.7,22,15.9,28.9,27.6c6.9,11.7,10.4,25.3,10.4,40.9c0,14.5-3.5,27.4-10.4,38.7
					c-6.9,11.3-16.6,20.1-28.9,26.5c-12.4,6.4-26.5,9.6-42.5,9.6h-40.9v79.5c0,4.7-1.5,8.6-4.6,11.8
					C1051.5,320.2,1047.5,321.8,1042.6,321.8z M1059.2,195h40.9c9.8,0,18.4-1.9,25.9-5.6c7.5-3.7,13.3-8.9,17.6-15.7
					c4.3-6.7,6.4-14.3,6.4-22.8c0-9.4-2.1-17.7-6.4-24.9c-4.3-7.2-10.1-12.9-17.6-16.9c-7.5-4-16.1-6.1-25.9-6.1h-40.9V195z
					 M1175.2,321.8c-3,0-5.7-0.6-8.1-1.9c-2.5-1.3-4.5-3.3-6.2-6.1l-57.5-92.6l32.3-9.3l52.4,84.3c3.8,6.2,4.4,12,1.6,17.4
					C1186.8,319.1,1182,321.8,1175.2,321.8z"/>
				<path d="M1244.5,321.8c-4.7,0-8.6-1.6-11.8-4.8c-3.2-3.2-4.8-7.1-4.8-11.8V88.9c0-4.9,1.6-8.9,4.8-12c3.2-3.1,7.1-4.6,11.8-4.6
					c6.4,0,11.3,3,14.7,8.9l100,200.3H1349l97.4-200.3c3.4-6,8.3-8.9,14.7-8.9c4.7,0,8.6,1.5,11.8,4.6c3.2,3.1,4.8,7.1,4.8,12v216.3
					c0,4.7-1.7,8.6-5,11.8c-3.3,3.2-7.2,4.8-11.7,4.8c-4.7,0-8.6-1.6-11.8-4.8c-3.2-3.2-4.8-7.1-4.8-11.8V134.9l6.4-1.6l-83.7,170.6
					c-3.6,5.5-8.4,8.3-14.4,8.3c-7,0-12.1-3.3-15.3-9.9l-82.7-165.8l6.4-1.6v170.3c0,4.7-1.6,8.6-4.8,11.8
					S1249.2,321.8,1244.5,321.8z"/>
			</g>
		</g>
	</g>
</g>
</svg>
