<?xml version="1.0" encoding="utf-8"?>
<!-- Generator: Adobe Illustrator 26.4.1, SVG Export Plug-In . SVG Version: 6.00 Build 0)  -->
<svg version="1.1"
	 id="svg1" xmlns:sodipodi="http://sodipodi.sourceforge.net/DTD/sodipodi-0.dtd" xmlns:inkscape="http://www.inkscape.org/namespaces/inkscape" xmlns:svg="http://www.w3.org/2000/svg"
	 xmlns="http://www.w3.org/2000/svg" xmlns:xlink="http://www.w3.org/1999/xlink" x="0px" y="0px" viewBox="0 0 1536 768"
	 style="enable-background:new 0 0 1536 768;" xml:space="preserve">
<style type="text/css">
	.st0{fill:#1677FF;}
	.st1{enable-background:new    ;}
	.st2{fill:#ECECEC;}
</style>
<sodipodi:namedview  bordercolor="#000000" borderopacity="0.25" id="namedview1" inkscape:current-layer="layer1" inkscape:cx="698.73197" inkscape:cy="553.06276" inkscape:deskcolor="#d1d1d1" inkscape:document-units="px" inkscape:pagecheckerboard="0" inkscape:pageopacity="0.0" inkscape:showpageshadow="2" inkscape:window-height="989" inkscape:window-maximized="0" inkscape:window-width="1717" inkscape:window-x="26" inkscape:window-y="23" inkscape:zoom="0.62470306" pagecolor="#ffffff" showguides="false">
	</sodipodi:namedview>
<defs>
	
		<inkscape:path-effect  apply_no_radius="true" apply_with_radius="true" chamfer_steps="1" effect="fillet_chamfer" flexible="false" hide_knots="false" id="path-effect3" is_visible="true" lpeversion="1" method="auto" mode="F" nodesatellites_param="F,0,0,1,0,34.939793,0,1 @ F,0,0,1,0,13.668271,0,1 @ F,0,0,1,0,0,0,1 @ F,0,0,1,0,0,0,1 @ F,0,1,1,0,0,0,1 @ F,0,0,1,0,16.219835,0,1 @ F,0,0,1,0,0,0,1 @ F,0,0,1,0,7.2398014,0,1" only_selected="false" radius="0" unit="px" use_knot_distance="true">
		</inkscape:path-effect>
	
		<inkscape:path-effect  apply_no_radius="true" apply_with_radius="true" chamfer_steps="1" effect="fillet_chamfer" flexible="false" hide_knots="false" id="path-effect2" is_visible="true" lpeversion="1" method="auto" mode="F" nodesatellites_param="F,0,0,1,0,0,0,1 @ F,0,0,1,0,0,0,1 @ F,0,0,1,0,0,0,1 @ F,0,0,1,0,0,0,1 @ F,0,0,1,0,0,0,1 @ F,0,0,1,0,0,0,1 @ F,0,0,1,0,0,0,1 @ F,0,0,1,0,0,0,1" only_selected="false" radius="0" unit="px" use_knot_distance="true">
		</inkscape:path-effect>
	
		<inkscape:path-effect  apply_no_radius="true" apply_with_radius="true" chamfer_steps="1" effect="fillet_chamfer" flexible="false" hide_knots="false" id="path-effect1" is_visible="true" lpeversion="1" method="auto" mode="F" nodesatellites_param="F,0,0,1,0,0,0,1 @ F,0,0,1,0,0,0,1 @ F,0,0,1,0,0,0,1 @ F,0,0,1,0,0,0,1 @ F,0,0,1,0,0,0,1 @ F,0,0,1,0,0,0,1 @ F,0,0,1,0,0,0,1 @ F,0,0,1,0,0,0,1 @ F,0,0,1,0,0,0,1 @ F,0,0,1,0,0,0,1 @ F,0,0,1,0,0,0,1 @ F,0,0,1,0,0,0,1 @ F,0,0,1,0,0,0,1 @ F,0,0,1,0,0,0,1 @ F,0,0,1,0,0,0,1 @ F,0,0,1,0,0,0,1 @ F,0,0,1,0,0,0,1 @ F,0,0,1,0,0,0,1 @ F,0,0,1,0,0,0,1 @ F,0,0,1,0,0,0,1 @ F,0,0,1,0,0,0,1 @ F,0,0,1,0,0,0,1 @ F,0,0,1,0,0,0,1 @ F,0,0,1,0,0,0,1 @ F,0,0,1,0,0,0,1 @ F,0,0,1,0,0,0,1 @ F,0,0,1,0,0,0,1 @ F,0,0,1,0,0,0,1 @ F,0,0,1,0,0,0,1 @ F,0,0,1,0,0,0,1 @ F,0,0,1,0,41.818818,0,1 @ F,0,0,1,0,40.766592,0,1 @ F,0,0,1,0,0,0,1 @ F,0,0,1,0,0,0,1 @ F,0,0,1,0,0,0,1 @ F,0,0,1,0,0,0,1 @ F,0,0,1,0,0,0,1 | F,0,0,1,0,0,0,1 @ F,0,0,1,0,0,0,1 @ F,0,0,1,0,0,0,1 @ F,0,0,1,0,0,0,1 @ F,0,0,1,0,0,0,1 @ F,0,0,1,0,0,0,1 @ F,0,0,1,0,0,0,1 @ F,0,0,1,0,39.598722,0,1 @ F,0,0,1,0,45.398425,0,1 @ F,0,0,1,0,0,0,1 @ F,0,0,1,0,0,0,1 @ F,0,0,1,0,0,0,1 @ F,0,0,1,0,0,0,1 @ F,0,0,1,0,0,0,1 @ F,0,0,1,0,0,0,1 @ F,0,0,1,0,0,0,1 @ F,0,0,1,0,0,0,1" only_selected="false" radius="0" unit="px" use_knot_distance="true">
		</inkscape:path-effect>
	
		<inkscape:path-effect  apply_no_radius="true" apply_with_radius="true" chamfer_steps="1" effect="fillet_chamfer" flexible="false" hide_knots="false" id="path-effect1-1" is_visible="true" lpeversion="1" method="auto" mode="F" nodesatellites_param="F,0,0,1,0,0,0,1 @ F,0,0,1,0,0,0,1 @ F,0,0,1,0,0,0,1 @ F,0,0,1,0,0,0,1 @ F,0,0,1,0,0,0,1 @ F,0,0,1,0,0,0,1 @ F,0,0,1,0,0,0,1 @ F,0,0,1,0,0,0,1 @ F,0,0,1,0,0,0,1 @ F,0,0,1,0,0,0,1 @ F,0,0,1,0,0,0,1 @ F,0,0,1,0,0,0,1 @ F,0,0,1,0,0,0,1 @ F,0,0,1,0,0,0,1 @ F,0,0,1,0,0,0,1 @ F,0,0,1,0,0,0,1 @ F,0,0,1,0,0,0,1 @ F,0,0,1,0,0,0,1 @ F,0,0,1,0,0,0,1 @ F,0,0,1,0,0,0,1 @ F,0,0,1,0,0,0,1 @ F,0,0,1,0,0,0,1 @ F,0,0,1,0,0,0,1 @ F,0,0,1,0,0,0,1 @ F,0,0,1,0,0,0,1 @ F,0,0,1,0,0,0,1 @ F,0,0,1,0,0,0,1 @ F,0,0,1,0,0,0,1 @ F,0,0,1,0,0,0,1 @ F,0,0,1,0,0,0,1 @ F,0,0,1,0,41.818818,0,1 @ F,0,0,1,0,40.766592,0,1 @ F,0,0,1,0,0,0,1 @ F,0,0,1,0,0,0,1 @ F,0,0,1,0,0,0,1 @ F,0,0,1,0,0,0,1 @ F,0,0,1,0,0,0,1 | F,0,0,1,0,0,0,1 @ F,0,0,1,0,0,0,1 @ F,0,0,1,0,0,0,1 @ F,0,0,1,0,0,0,1 @ F,0,0,1,0,0,0,1 @ F,0,0,1,0,0,0,1 @ F,0,0,1,0,0,0,1 @ F,0,0,1,0,39.598722,0,1 @ F,0,0,1,0,45.398425,0,1 @ F,0,0,1,0,0,0,1 @ F,0,0,1,0,0,0,1 @ F,0,0,1,0,0,0,1 @ F,0,0,1,0,0,0,1 @ F,0,0,1,0,0,0,1 @ F,0,0,1,0,0,0,1 @ F,0,0,1,0,0,0,1 @ F,0,0,1,0,0,0,1" only_selected="false" radius="0" unit="px" use_knot_distance="true">
		</inkscape:path-effect>
</defs>
<g id="layer1" inkscape:groupmode="layer" inkscape:label="Слой 1">
	
		<path id="path1" inkscape:original-d="M 612.40797,418.0083 V 294.5894 c -9.7e-4,-7.84707 0.44452,-16.02507 -0.48098,-23.81887 -4.43116,-37.28201 -35.24592,-72.61905 -73.95122,-74.808 -34.94444,-1.97578 -62.95467,22.15859 -87.50834,43.94418 -17.19175,15.25522 -32.20439,30.62124 -39.56907,52.98035 -4.29795,13.04385 -3.21963,27.13801 -3.22103,40.68109 l 0.0323,192.10184 c -0.007,6.94961 0.3197,14.07873 -0.14865,21.0017 -5.04534,74.69442 -76.97029,128.55543 -147.84496,106.42205 -17.50447,-5.466 -33.84507,-14.97617 -45.84846,-28.98059 l -0.75722,0.91848 c -10.13414,11.53364 -25.00518,19.49149 -39.37556,24.43309 -64.94215,22.33244 -131.694425,-29.31156 -136.094304,-95.43675 -0.388704,-5.84184 -0.189494,-11.77901 -0.197848,-17.63208 l -0.03034,-212.13176 c 7.05e-4,-26.35696 -1.593682,-53.04206 3.907131,-78.97697 C 56.75847,172.49424 117.0247,115.19112 191.67666,110.18375 l 14.91026,-0.0292 c 62.44426,1.46034 119.52205,51.22796 160.12041,93.77014 2.9223,-2.63346 5.55857,-5.65533 8.31543,-8.46829 l 15.52726,-15.37162 c 28.09999,-26.57666 60.35068,-51.78449 98.02812,-62.90333 18.43839,-5.44106 39.43308,-8.61848 58.76331,-6.76411 83.87364,8.04621 143.72651,81.42265 149.10979,162.97132 0.38002,5.7521 0.18928,11.58973 0.19215,17.35583 l -0.007,227.37859 c 0,17.39652 0.65487,34.46767 -3.04854,51.59634 -17.56841,81.25277 -116.80808,114.78094 -176.459,54.50038 -22.63397,-22.87235 -31.65613,-49.43963 -31.68559,-80.78163 l 0.0395,-78.91807 82.44052,-0.077 c 0.63026,22.11948 0.21953,44.31543 0.21396,66.45611 0.007,12.90503 -1.29571,32.43018 15.6787,36.59349 l 0.52445,0.12058 c 7.34787,1.73318 15.861,0.0643 21.30742,-5.30899 7.76574,-7.66194 6.75329,-18.09201 6.76453,-28.03405 z M 197.02353,195.74236 c -36.81925,1.95617 -68.16309,33.91658 -74.25973,69.48784 -1.48779,8.67999 -1.47139,16.88746 -1.47546,25.65584 l -0.0719,241.61435 c -0.008,5.40293 -0.34986,11.04423 0.0131,16.42055 0.80953,12.01038 12.73917,20.38751 24.23143,19.12829 23.0228,-2.5227 20.27575,-27.67371 20.28417,-43.83201 -0.0131,-21.12264 -3.39588,-42.29849 0.41467,-59.72102 l 81.96798,9.6e-4 c -0.2512,22.44551 -0.10714,44.89428 -0.10022,67.34096 0.0224,4.70457 -0.30988,10.3599 1.26767,14.82614 15.30148,43.2921 74.3102,31.66732 76.99272,-6.14473 0.33515,-4.72424 0.17104,-9.54663 0.16972,-14.28207 l -0.045,-198.82011 c -0.007,-5.07901 0.15143,-10.2169 -0.1697,-15.28188 -2.17503,-34.28197 -22.94537,-54.90228 -47.9884,-76.40178 -23.15282,-19.87712 -48.99936,-40.94475 -81.23041,-39.9926 z" inkscape:path-effect="#path-effect1" sodipodi:nodetypes="cccccccccccccscccccccccccccccccccccccccccccscccccscccccc" class="st0" d="
		M612.4,418V294.6c0-7.8,0.4-16-0.5-23.8c-4.4-37.3-35.2-72.6-74-74.8c-34.9-2-63,22.2-87.5,43.9c-17.2,15.3-32.2,30.6-39.6,53
		c-4.3,13-3.2,27.1-3.2,40.7l0,192.1c0,6.9,0.3,14.1-0.1,21c-5,74.7-77,128.6-147.8,106.4c-17.5-5.5-33.8-15-45.8-29l-0.8,0.9
		c-10.1,11.5-25,19.5-39.4,24.4C108.8,671.8,42,620.2,37.6,554c-0.4-5.8-0.2-11.8-0.2-17.6l0-212.1c0-26.4-1.6-53,3.9-79
		c15.4-72.8,75.7-130.1,150.4-135.1l14.9,0c62.4,1.5,119.5,51.2,160.1,93.8c2.9-2.6,5.6-5.7,8.3-8.5l15.5-15.4
		c28.1-26.6,60.4-51.8,98-62.9c18.4-5.4,39.4-8.6,58.8-6.8c83.9,8,143.7,81.4,149.1,163c0.4,5.8,0.2,11.6,0.2,17.4l0,227.4
		c0,17.4,0.7,34.5-3,51.6C676,651,576.8,684.5,517.1,624.2c-22.6-22.9-31.7-49.4-31.7-80.8l0-37.1c0-23.1,18.7-41.8,41.8-41.9
		c22.4,0,41,18.2,40.9,40.7c0,8.6-0.1,17.1-0.1,25.7c0,12.9-1.3,32.4,15.7,36.6l0.5,0.1c7.3,1.7,15.9,0.1,21.3-5.3
		c7.8-7.7,6.8-18.1,6.8-28L612.4,418z M197,195.7c-36.8,2-68.2,33.9-74.3,69.5c-1.5,8.7-1.5,16.9-1.5,25.7l-0.1,241.6
		c0,5.4-0.3,11,0,16.4c0.8,12,12.7,20.4,24.2,19.1c23-2.5,20.3-27.7,20.3-43.8c0-6.8-0.4-13.6-0.7-20.3
		c-1.1-21.8,18.8-39.5,40.7-39.5c23.4,0,42.2,20.3,42.2,45.4c0,7.3,0,14.6,0,21.9c0,4.7-0.3,10.4,1.3,14.8
		c15.3,43.3,74.3,31.7,77-6.1c0.3-4.7,0.2-9.5,0.2-14.3l0-198.8c0-5.1,0.2-10.2-0.2-15.3c-2.2-34.3-22.9-54.9-48-76.4
		C255.1,215.9,229.3,194.8,197,195.7L197,195.7z"/>
	<g>
		<g class="st1">
			<path class="st2" d="M755.8,619.1c-3.7,0-6.8-1.3-9.4-3.8c-2.5-2.5-3.8-5.7-3.8-9.4V434.5c0-3.9,1.3-7,3.8-9.5
				c2.5-2.4,5.7-3.7,9.4-3.7h45.6c12.7,0,23.9,2.7,33.7,8c9.8,5.3,17.4,12.6,22.9,21.9c5.5,9.3,8.2,20.1,8.2,32.4
				c0,11.5-2.7,21.7-8.2,30.6c-5.5,9-13.1,16-22.9,21c-9.8,5.1-21,7.6-33.7,7.6h-32.4v63.1c0,3.7-1.2,6.8-3.7,9.4
				C762.8,617.8,759.6,619.1,755.8,619.1z M768.9,518.6h32.4c7.8,0,14.6-1.5,20.5-4.4c5.9-3,10.5-7.1,13.9-12.4
				c3.4-5.3,5.1-11.4,5.1-18.1c0-7.4-1.7-14-5.1-19.8c-3.4-5.7-8-10.2-13.9-13.4c-5.9-3.2-12.8-4.8-20.5-4.8h-32.4V518.6z
				 M860.9,619.1c-2.4,0-4.5-0.5-6.5-1.5c-1.9-1-3.6-2.6-4.9-4.8l-45.6-73.4l25.6-7.3l41.5,66.9c3,4.9,3.5,9.5,1.3,13.8
				C870.1,616.9,866.3,619.1,860.9,619.1z"/>
			<path class="st2" d="M965.2,620.1c-14,0-26.5-3-37.4-9c-10.9-6-19.4-14.3-25.6-24.8c-6.2-10.5-9.2-22.7-9.2-36.3
				c0-13.8,2.9-26,8.7-36.6c5.8-10.5,13.9-18.8,24.2-24.8c10.3-6,22.1-9,35.5-9c13.2,0,24.5,2.9,33.9,8.7
				c9.5,5.8,16.7,13.8,21.7,24.1c5,10.2,7.5,22,7.5,35.3c0,3.2-1.1,5.9-3.3,8c-2.2,2.1-5,3.2-8.4,3.2H910.8v-20.3h101.3l-10.4,7.1
				c-0.2-8.4-1.9-16-5.1-22.7c-3.2-6.7-7.8-11.9-13.7-15.8c-5.9-3.9-13.1-5.8-21.5-5.8c-9.6,0-17.9,2.1-24.7,6.3
				c-6.8,4.2-12,10-15.6,17.3c-3.5,7.3-5.3,15.7-5.3,24.9c0,9.3,2.1,17.6,6.3,24.8c4.2,7.3,10,13,17.5,17.2c7.4,4.2,16,6.3,25.6,6.3
				c5.2,0,10.6-1,16.1-2.9c5.5-1.9,9.9-4.2,13.3-6.7c2.5-1.9,5.3-2.8,8.2-2.9c3-0.1,5.5,0.8,7.7,2.7c2.9,2.5,4.4,5.3,4.6,8.4
				c0.2,3-1.2,5.7-4.1,7.9c-5.7,4.6-12.9,8.3-21.4,11.1C981.1,618.7,973,620.1,965.2,620.1z"/>
			<path class="st2" d="M1090.3,619.1c-7.4,0-14-2-19.8-6.1c-5.7-4.1-10.2-9.6-13.4-16.6c-3.2-7-4.8-15.1-4.8-24.2V434
				c0-3.7,1.2-6.8,3.5-9.1c2.4-2.4,5.4-3.5,9.1-3.5c3.7,0,6.8,1.2,9.1,3.5c2.4,2.4,3.5,5.4,3.5,9.1v138.3c0,6.2,1.2,11.4,3.5,15.4
				c2.4,4.1,5.4,6.1,9.1,6.1h6.3c3.4,0,6.1,1.2,8.2,3.5c2.1,2.4,3.2,5.4,3.2,9.1c0,3.7-1.6,6.8-4.8,9.1c-3.2,2.4-7.3,3.5-12.4,3.5
				H1090.3z"/>
			<path class="st2" d="M1191.1,620.1c-12.3,0-23.4-3.1-33.2-9.2c-9.8-6.2-17.5-14.5-23.2-25.1c-5.7-10.5-8.5-22.5-8.5-35.8
				c0-13.3,3.1-25.3,9.2-36c6.2-10.6,14.5-19,25.1-25.2c10.5-6.2,22.4-9.2,35.6-9.2s25,3.1,35.5,9.2c10.5,6.2,18.8,14.6,24.9,25.2
				c6.2,10.6,9.2,22.6,9.2,36h-9.9c0,13.3-2.8,25.3-8.5,35.8c-5.7,10.6-13.4,18.9-23.2,25.1C1214.5,617,1203.4,620.1,1191.1,620.1z
				 M1196.2,597.3c8.6,0,16.3-2.1,23-6.2c6.8-4.1,12.1-9.8,16-17c3.9-7.2,5.8-15.2,5.8-24.2c0-9.1-1.9-17.3-5.8-24.4
				c-3.9-7.2-9.2-12.8-16-17c-6.8-4.1-14.4-6.2-23-6.2c-8.4,0-16.1,2.1-22.9,6.2c-6.8,4.1-12.2,9.8-16.2,17c-4,7.2-6,15.3-6,24.4
				c0,9,2,17,6,24.2c4,7.2,9.4,12.8,16.2,17C1180.1,595.3,1187.7,597.3,1196.2,597.3z M1252.9,619.4c-3.7,0-6.8-1.2-9.2-3.7
				c-2.5-2.4-3.7-5.5-3.7-9.2v-38.8l4.8-26.8l21,9.1v56.5c0,3.7-1.2,6.8-3.7,9.2C1259.7,618.1,1256.6,619.4,1252.9,619.4z"/>
			<path class="st2" d="M1298.5,507.4c-3.5,0-6.4-1-8.6-3c-2.2-2-3.3-4.6-3.3-7.6c0-3.4,1.1-6.1,3.3-8.1c2.2-2,5.1-3,8.6-3h58.5
				c3.5,0,6.4,1,8.6,3c2.2,2,3.3,4.7,3.3,8.1c0,3-1.1,5.6-3.3,7.6c-2.2,2-5.1,3-8.6,3H1298.5z M1354.7,619.1c-8.4,0-16-2.2-22.8-6.5
				c-6.8-4.3-12.1-10.2-16-17.6c-3.9-7.4-5.8-15.8-5.8-25.1V449.2c0-3.7,1.2-6.8,3.5-9.1c2.4-2.4,5.4-3.5,9.1-3.5
				c3.7,0,6.8,1.2,9.1,3.5c2.4,2.4,3.5,5.4,3.5,9.1V570c0,6.8,1.9,12.4,5.6,17c3.7,4.6,8.3,6.8,13.7,6.8h8.6c3,0,5.6,1.2,7.7,3.5
				c2.1,2.4,3.2,5.4,3.2,9.1c0,3.7-1.4,6.8-4.2,9.1c-2.8,2.4-6.4,3.5-10.8,3.5H1354.7z"/>
			<path class="st2" d="M1471,620.1c-14,0-26.5-3-37.4-9c-10.9-6-19.4-14.3-25.6-24.8c-6.2-10.5-9.2-22.7-9.2-36.3
				c0-13.8,2.9-26,8.7-36.6c5.8-10.5,13.9-18.8,24.2-24.8c10.3-6,22.1-9,35.5-9c13.2,0,24.5,2.9,33.9,8.7
				c9.5,5.8,16.7,13.8,21.7,24.1c5,10.2,7.5,22,7.5,35.3c0,3.2-1.1,5.9-3.3,8c-2.2,2.1-5,3.2-8.4,3.2h-102.1v-20.3h101.3l-10.4,7.1
				c-0.2-8.4-1.9-16-5.1-22.7c-3.2-6.7-7.8-11.9-13.7-15.8c-5.9-3.9-13.1-5.8-21.5-5.8c-9.6,0-17.9,2.1-24.7,6.3
				c-6.8,4.2-12,10-15.6,17.3s-5.3,15.7-5.3,24.9c0,9.3,2.1,17.6,6.3,24.8c4.2,7.3,10,13,17.5,17.2c7.4,4.2,16,6.3,25.6,6.3
				c5.2,0,10.6-1,16.1-2.9c5.5-1.9,9.9-4.2,13.3-6.7c2.5-1.9,5.3-2.8,8.2-2.9c3-0.1,5.5,0.8,7.7,2.7c2.9,2.5,4.4,5.3,4.6,8.4
				c0.2,3-1.2,5.7-4.1,7.9c-5.7,4.6-12.9,8.3-21.4,11.1C1486.9,618.7,1478.7,620.1,1471,620.1z"/>
		</g>
	</g>
</g>
</svg>
