<?xml version="1.0" encoding="UTF-8" standalone="no"?>
<!-- Created with Inkscape (http://www.inkscape.org/) -->

<svg
   width="1536"
   height="768"
   viewBox="0 0 1536 768"
   version="1.1"
   id="svg1"
   xml:space="preserve"
   inkscape:version="1.3.2 (091e20ef0f, 2023-11-25)"
   sodipodi:docname="logo_white.svg"
   xmlns:inkscape="http://www.inkscape.org/namespaces/inkscape"
   xmlns:sodipodi="http://sodipodi.sourceforge.net/DTD/sodipodi-0.dtd"
   xmlns="http://www.w3.org/2000/svg"
   xmlns:svg="http://www.w3.org/2000/svg"><sodipodi:namedview
     id="namedview1"
     pagecolor="#ffffff"
     bordercolor="#000000"
     borderopacity="0.25"
     inkscape:showpageshadow="2"
     inkscape:pageopacity="0.0"
     inkscape:pagecheckerboard="0"
     inkscape:deskcolor="#d1d1d1"
     inkscape:document-units="px"
     showguides="false"
     inkscape:zoom="0.62470306"
     inkscape:cx="698.73197"
     inkscape:cy="553.06276"
     inkscape:window-width="1717"
     inkscape:window-height="989"
     inkscape:window-x="26"
     inkscape:window-y="23"
     inkscape:window-maximized="0"
     inkscape:current-layer="layer1" /><defs
     id="defs1"><inkscape:path-effect
       effect="fillet_chamfer"
       id="path-effect3"
       is_visible="true"
       lpeversion="1"
       nodesatellites_param="F,0,0,1,0,34.939793,0,1 @ F,0,0,1,0,13.668271,0,1 @ F,0,0,1,0,0,0,1 @ F,0,0,1,0,0,0,1 @ F,0,1,1,0,0,0,1 @ F,0,0,1,0,16.219835,0,1 @ F,0,0,1,0,0,0,1 @ F,0,0,1,0,7.2398014,0,1"
       radius="0"
       unit="px"
       method="auto"
       mode="F"
       chamfer_steps="1"
       flexible="false"
       use_knot_distance="true"
       apply_no_radius="true"
       apply_with_radius="true"
       only_selected="false"
       hide_knots="false" /><inkscape:path-effect
       effect="fillet_chamfer"
       id="path-effect2"
       is_visible="true"
       lpeversion="1"
       nodesatellites_param="F,0,0,1,0,0,0,1 @ F,0,0,1,0,0,0,1 @ F,0,0,1,0,0,0,1 @ F,0,0,1,0,0,0,1 @ F,0,0,1,0,0,0,1 @ F,0,0,1,0,0,0,1 @ F,0,0,1,0,0,0,1 @ F,0,0,1,0,0,0,1"
       radius="0"
       unit="px"
       method="auto"
       mode="F"
       chamfer_steps="1"
       flexible="false"
       use_knot_distance="true"
       apply_no_radius="true"
       apply_with_radius="true"
       only_selected="false"
       hide_knots="false" /><inkscape:path-effect
       effect="fillet_chamfer"
       id="path-effect1"
       is_visible="true"
       lpeversion="1"
       nodesatellites_param="F,0,0,1,0,0,0,1 @ F,0,0,1,0,0,0,1 @ F,0,0,1,0,0,0,1 @ F,0,0,1,0,0,0,1 @ F,0,0,1,0,0,0,1 @ F,0,0,1,0,0,0,1 @ F,0,0,1,0,0,0,1 @ F,0,0,1,0,0,0,1 @ F,0,0,1,0,0,0,1 @ F,0,0,1,0,0,0,1 @ F,0,0,1,0,0,0,1 @ F,0,0,1,0,0,0,1 @ F,0,0,1,0,0,0,1 @ F,0,0,1,0,0,0,1 @ F,0,0,1,0,0,0,1 @ F,0,0,1,0,0,0,1 @ F,0,0,1,0,0,0,1 @ F,0,0,1,0,0,0,1 @ F,0,0,1,0,0,0,1 @ F,0,0,1,0,0,0,1 @ F,0,0,1,0,0,0,1 @ F,0,0,1,0,0,0,1 @ F,0,0,1,0,0,0,1 @ F,0,0,1,0,0,0,1 @ F,0,0,1,0,0,0,1 @ F,0,0,1,0,0,0,1 @ F,0,0,1,0,0,0,1 @ F,0,0,1,0,0,0,1 @ F,0,0,1,0,0,0,1 @ F,0,0,1,0,0,0,1 @ F,0,0,1,0,41.818818,0,1 @ F,0,0,1,0,40.766592,0,1 @ F,0,0,1,0,0,0,1 @ F,0,0,1,0,0,0,1 @ F,0,0,1,0,0,0,1 @ F,0,0,1,0,0,0,1 @ F,0,0,1,0,0,0,1 | F,0,0,1,0,0,0,1 @ F,0,0,1,0,0,0,1 @ F,0,0,1,0,0,0,1 @ F,0,0,1,0,0,0,1 @ F,0,0,1,0,0,0,1 @ F,0,0,1,0,0,0,1 @ F,0,0,1,0,0,0,1 @ F,0,0,1,0,39.598722,0,1 @ F,0,0,1,0,45.398425,0,1 @ F,0,0,1,0,0,0,1 @ F,0,0,1,0,0,0,1 @ F,0,0,1,0,0,0,1 @ F,0,0,1,0,0,0,1 @ F,0,0,1,0,0,0,1 @ F,0,0,1,0,0,0,1 @ F,0,0,1,0,0,0,1 @ F,0,0,1,0,0,0,1"
       radius="0"
       unit="px"
       method="auto"
       mode="F"
       chamfer_steps="1"
       flexible="false"
       use_knot_distance="true"
       apply_no_radius="true"
       apply_with_radius="true"
       only_selected="false"
       hide_knots="false" /><linearGradient
       id="gradient_0"
       gradientUnits="userSpaceOnUse"
       x1="289.52567"
       y1="366.11255"
       x2="288.52896"
       y2="366.14355"><stop
         offset="0"
         stop-color="black"
         stop-opacity="0.90980393"
         id="stop2" /><stop
         offset="1"
         stop-color="black"
         stop-opacity="0.94509804"
         id="stop3" /></linearGradient><inkscape:path-effect
       effect="fillet_chamfer"
       id="path-effect1-1"
       is_visible="true"
       lpeversion="1"
       nodesatellites_param="F,0,0,1,0,0,0,1 @ F,0,0,1,0,0,0,1 @ F,0,0,1,0,0,0,1 @ F,0,0,1,0,0,0,1 @ F,0,0,1,0,0,0,1 @ F,0,0,1,0,0,0,1 @ F,0,0,1,0,0,0,1 @ F,0,0,1,0,0,0,1 @ F,0,0,1,0,0,0,1 @ F,0,0,1,0,0,0,1 @ F,0,0,1,0,0,0,1 @ F,0,0,1,0,0,0,1 @ F,0,0,1,0,0,0,1 @ F,0,0,1,0,0,0,1 @ F,0,0,1,0,0,0,1 @ F,0,0,1,0,0,0,1 @ F,0,0,1,0,0,0,1 @ F,0,0,1,0,0,0,1 @ F,0,0,1,0,0,0,1 @ F,0,0,1,0,0,0,1 @ F,0,0,1,0,0,0,1 @ F,0,0,1,0,0,0,1 @ F,0,0,1,0,0,0,1 @ F,0,0,1,0,0,0,1 @ F,0,0,1,0,0,0,1 @ F,0,0,1,0,0,0,1 @ F,0,0,1,0,0,0,1 @ F,0,0,1,0,0,0,1 @ F,0,0,1,0,0,0,1 @ F,0,0,1,0,0,0,1 @ F,0,0,1,0,41.818818,0,1 @ F,0,0,1,0,40.766592,0,1 @ F,0,0,1,0,0,0,1 @ F,0,0,1,0,0,0,1 @ F,0,0,1,0,0,0,1 @ F,0,0,1,0,0,0,1 @ F,0,0,1,0,0,0,1 | F,0,0,1,0,0,0,1 @ F,0,0,1,0,0,0,1 @ F,0,0,1,0,0,0,1 @ F,0,0,1,0,0,0,1 @ F,0,0,1,0,0,0,1 @ F,0,0,1,0,0,0,1 @ F,0,0,1,0,0,0,1 @ F,0,0,1,0,39.598722,0,1 @ F,0,0,1,0,45.398425,0,1 @ F,0,0,1,0,0,0,1 @ F,0,0,1,0,0,0,1 @ F,0,0,1,0,0,0,1 @ F,0,0,1,0,0,0,1 @ F,0,0,1,0,0,0,1 @ F,0,0,1,0,0,0,1 @ F,0,0,1,0,0,0,1 @ F,0,0,1,0,0,0,1"
       radius="0"
       unit="px"
       method="auto"
       mode="F"
       chamfer_steps="1"
       flexible="false"
       use_knot_distance="true"
       apply_no_radius="true"
       apply_with_radius="true"
       only_selected="false"
       hide_knots="false" /></defs><g
     inkscape:label="Слой 1"
     inkscape:groupmode="layer"
     id="layer1"><path
       d="M 612.40797,418.0083 V 294.5894 c -9.7e-4,-7.84707 0.44452,-16.02507 -0.48098,-23.81887 -4.43116,-37.28201 -35.24592,-72.61905 -73.95122,-74.808 -34.94444,-1.97578 -62.95467,22.15859 -87.50834,43.94418 -17.19175,15.25522 -32.20439,30.62124 -39.56907,52.98035 -4.29795,13.04385 -3.21963,27.13801 -3.22103,40.68109 l 0.0323,192.10184 c -0.007,6.94961 0.3197,14.07873 -0.14865,21.0017 -5.04534,74.69442 -76.97029,128.55543 -147.84496,106.42205 -17.50447,-5.466 -33.84507,-14.97617 -45.84846,-28.98059 l -0.75722,0.91848 c -10.13414,11.53364 -25.00518,19.49149 -39.37556,24.43309 -64.94215,22.33244 -131.694425,-29.31156 -136.094304,-95.43675 -0.388704,-5.84184 -0.189494,-11.77901 -0.197848,-17.63208 l -0.03034,-212.13176 c 7.05e-4,-26.35696 -1.593682,-53.04206 3.907131,-78.97697 C 56.75847,172.49424 117.0247,115.19112 191.67666,110.18375 l 14.91026,-0.0292 c 62.44426,1.46034 119.52205,51.22796 160.12041,93.77014 2.9223,-2.63346 5.55857,-5.65533 8.31543,-8.46829 l 15.52726,-15.37162 c 28.09999,-26.57666 60.35068,-51.78449 98.02812,-62.90333 18.43839,-5.44106 39.43308,-8.61848 58.76331,-6.76411 83.87364,8.04621 143.72651,81.42265 149.10979,162.97132 0.38002,5.7521 0.18928,11.58973 0.19215,17.35583 l -0.007,227.37859 c 0,17.39652 0.65487,34.46767 -3.04854,51.59634 -17.56841,81.25277 -116.80808,114.78094 -176.459,54.50038 -22.63397,-22.87235 -31.65613,-49.43963 -31.68559,-80.78163 l 0.0186,-37.09926 a 41.878851,41.878851 134.98758 0 1 41.83973,-41.85787 c 22.43513,-0.021 41.04456,18.21202 40.94023,40.72548 -0.0397,8.56741 -0.1024,17.13418 -0.10455,25.69269 0.007,12.90503 -1.29571,32.43018 15.6787,36.59349 l 0.52445,0.12058 c 7.34787,1.73318 15.861,0.0643 21.30742,-5.30899 7.76574,-7.66194 6.75329,-18.09201 6.76453,-28.03405 z M 197.02353,195.74236 c -36.81925,1.95617 -68.16309,33.91658 -74.25973,69.48784 -1.48779,8.67999 -1.47139,16.88746 -1.47546,25.65584 l -0.0719,241.61435 c -0.008,5.40293 -0.34986,11.04423 0.0131,16.42055 0.80953,12.01038 12.73917,20.38751 24.23143,19.12829 23.0228,-2.5227 20.27575,-27.67371 20.28417,-43.83201 -0.004,-6.7892 -0.35654,-13.58389 -0.70624,-20.25769 -1.14093,-21.77391 18.84986,-39.46312 40.71963,-39.46287 23.40026,2.8e-4 42.1926,20.32577 42.23701,45.3984 0.013,7.31445 0.0298,14.62887 0.032,21.94306 0.0224,4.70457 -0.30988,10.3599 1.26767,14.82614 15.30148,43.2921 74.3102,31.66732 76.99272,-6.14473 0.33515,-4.72424 0.17104,-9.54663 0.16972,-14.28207 l -0.045,-198.82011 c -0.007,-5.07901 0.15143,-10.2169 -0.1697,-15.28188 -2.17503,-34.28197 -22.94537,-54.90228 -47.9884,-76.40178 -23.15282,-19.87712 -48.99936,-40.94475 -81.23041,-39.9926 z"
       id="path1"
       style="fill:#1677ff;stroke-width:1.40225;fill-opacity:1"
       sodipodi:nodetypes="cccccccccccccscccccccccccccccccccccccccccccscccccscccccc"
       inkscape:path-effect="#path-effect1"
       inkscape:original-d="M 612.40797,418.0083 V 294.5894 c -9.7e-4,-7.84707 0.44452,-16.02507 -0.48098,-23.81887 -4.43116,-37.28201 -35.24592,-72.61905 -73.95122,-74.808 -34.94444,-1.97578 -62.95467,22.15859 -87.50834,43.94418 -17.19175,15.25522 -32.20439,30.62124 -39.56907,52.98035 -4.29795,13.04385 -3.21963,27.13801 -3.22103,40.68109 l 0.0323,192.10184 c -0.007,6.94961 0.3197,14.07873 -0.14865,21.0017 -5.04534,74.69442 -76.97029,128.55543 -147.84496,106.42205 -17.50447,-5.466 -33.84507,-14.97617 -45.84846,-28.98059 l -0.75722,0.91848 c -10.13414,11.53364 -25.00518,19.49149 -39.37556,24.43309 -64.94215,22.33244 -131.694425,-29.31156 -136.094304,-95.43675 -0.388704,-5.84184 -0.189494,-11.77901 -0.197848,-17.63208 l -0.03034,-212.13176 c 7.05e-4,-26.35696 -1.593682,-53.04206 3.907131,-78.97697 C 56.75847,172.49424 117.0247,115.19112 191.67666,110.18375 l 14.91026,-0.0292 c 62.44426,1.46034 119.52205,51.22796 160.12041,93.77014 2.9223,-2.63346 5.55857,-5.65533 8.31543,-8.46829 l 15.52726,-15.37162 c 28.09999,-26.57666 60.35068,-51.78449 98.02812,-62.90333 18.43839,-5.44106 39.43308,-8.61848 58.76331,-6.76411 83.87364,8.04621 143.72651,81.42265 149.10979,162.97132 0.38002,5.7521 0.18928,11.58973 0.19215,17.35583 l -0.007,227.37859 c 0,17.39652 0.65487,34.46767 -3.04854,51.59634 -17.56841,81.25277 -116.80808,114.78094 -176.459,54.50038 -22.63397,-22.87235 -31.65613,-49.43963 -31.68559,-80.78163 l 0.0395,-78.91807 82.44052,-0.077 c 0.63026,22.11948 0.21953,44.31543 0.21396,66.45611 0.007,12.90503 -1.29571,32.43018 15.6787,36.59349 l 0.52445,0.12058 c 7.34787,1.73318 15.861,0.0643 21.30742,-5.30899 7.76574,-7.66194 6.75329,-18.09201 6.76453,-28.03405 z M 197.02353,195.74236 c -36.81925,1.95617 -68.16309,33.91658 -74.25973,69.48784 -1.48779,8.67999 -1.47139,16.88746 -1.47546,25.65584 l -0.0719,241.61435 c -0.008,5.40293 -0.34986,11.04423 0.0131,16.42055 0.80953,12.01038 12.73917,20.38751 24.23143,19.12829 23.0228,-2.5227 20.27575,-27.67371 20.28417,-43.83201 -0.0131,-21.12264 -3.39588,-42.29849 0.41467,-59.72102 l 81.96798,9.6e-4 c -0.2512,22.44551 -0.10714,44.89428 -0.10022,67.34096 0.0224,4.70457 -0.30988,10.3599 1.26767,14.82614 15.30148,43.2921 74.3102,31.66732 76.99272,-6.14473 0.33515,-4.72424 0.17104,-9.54663 0.16972,-14.28207 l -0.045,-198.82011 c -0.007,-5.07901 0.15143,-10.2169 -0.1697,-15.28188 -2.17503,-34.28197 -22.94537,-54.90228 -47.9884,-76.40178 -23.15282,-19.87712 -48.99936,-40.94475 -81.23041,-39.9926 z"
       fill="#000000" /><text
       xml:space="preserve"
       style="font-size:253.265px;fill:#ececec;stroke-width:1.79396"
       x="717.27087"
       y="619.10095"
       id="text1"><tspan
         sodipodi:role="line"
         id="tspan1"
         x="717.27087"
         y="619.10095"
         style="font-style:normal;font-variant:normal;font-weight:bold;font-stretch:normal;font-size:253.265px;font-family:Comfortaa;-inkscape-font-specification:'Comfortaa Bold';fill:#ececec;stroke-width:1.79396">Relate</tspan></text></g></svg>
